<?xml version="1.0" encoding="utf-8"?>
<!-- Generator: Adobe Illustrator 25.2.0, SVG Export Plug-In . SVG Version: 6.00 Build 0)  -->
<svg version="1.1" id="Layer_1" xmlns="http://www.w3.org/2000/svg" xmlns:xlink="http://www.w3.org/1999/xlink" x="0px" y="0px"
	 viewBox="0 0 1500 578.49" style="enable-background:new 0 0 1500 578.49;" xml:space="preserve">
<style type="text/css">
	.st0{fill:#FFFFFF;}
	.st1{fill:#1A5EA8;}
	.st2{fill:none;}
	.st3{fill:#E61A55;}
	.st4{fill:#F6A54C;}
	.st5{opacity:0.58;}
	.st6{fill:#19AF8F;}
	.st7{fill:#1069B2;}
</style>
<g>
	<path class="st0" d="M1154.68,46.25l88.76,163.7l-77.6,142.95l37.68,25.88l129.66-5.87l29.45-46.09l31.74-43.01l14.86-33.32
		l-4-65.14l-17.71-41.43c0,0-18.86-43.71-19.14-45.43c-0.29-1.71-29.78-36.29-29.78-36.29l-103.36-22.29l-58.29-3.02L1154.68,46.25z
		"/>
	<g>
		<g>
			<path class="st1" d="M401.71,41.75c4.71,7.65,10.62,13.01,16.77,19.04c-3.55,0.91-3.84,3.21-3.82,5.92
				c0.09,14.72,0.04,29.43,0.04,44.15c0,0.29,0,0.57,0,0.86c0.09,4.36,0.38,4.7,4.6,4.76c4,0.06,8,0.02,12,0.02
				c3.29,0,6.57,0.03,9.86-0.01c4.59-0.06,4.92-0.36,4.95-4.84c0.04-7.86,0.01-15.72,0.01-23.58c0-1.43,0.07-2.86-0.01-4.29
				c-0.46-7.77,3.83-10.12,11.23-9.43c1.71,0.16,2.61,1,2.68,2.7c0.05,1.14,0.08,2.28,0.08,3.43c0.01,10,0,20,0.01,30.01
				c0,1.14,0.01,2.29,0.08,3.43c0.1,1.5,0.92,2.37,2.43,2.47c1.28,0.09,2.57,0.11,3.85,0.11c67.45,0,134.9,0.01,202.35,0
				c6.26,0,6.26-0.02,6.28-6.1c0.01-2.43,0.04-4.86-0.01-7.29c-0.2-9.13-5.67-14.71-14.78-14.8c-12-0.12-24.01-0.04-36.01-0.04
				c-9.29,0-18.58,0.04-27.87-0.02c-6.5-0.04-9.18-2.57-9.43-8.98c-0.19-4.85-0.14-9.7,0.66-14.53
				c2.09-12.59,12.43-22.02,25.19-22.15c22-0.22,44.01-0.08,66.02-0.08c0.57,0,1.14,0.03,1.71,0.08c1.47,0.13,2.15,0.95,1.52,2.31
				c-1.38,3-2.34,6.13-3.17,9.31c-0.38,1.46-1.46,2.06-2.86,2.13c-1.28,0.07-2.57,0.08-3.86,0.08c-18.58,0.01-37.15,0.07-55.73-0.03
				c-4.91-0.03-8.94,1.47-12.1,5.25c-2.33,2.79-3.12,6.03-2.89,9.59c0.12,1.86,0.92,2.95,2.88,2.97c1.29,0.01,2.57,0.05,3.86,0.05
				c17.29,0,34.59,0.27,51.87-0.07c18.34-0.36,29.68,12.6,29.05,29.18c-0.13,3.42-0.09,6.86,0.05,10.29
				c0.11,2.69,0.68,3.33,3.36,3.37c8.14,0.1,16.29,0.1,24.43,0c2.85-0.04,3.42-0.7,3.48-3.7c0.11-5,0.15-10,0.01-15
				c-0.08-2.92,0.81-4.91,3.64-6.05c2.12-0.85,4.09-2.04,6.15-3.03c3.75-1.81,4.15-1.6,4.19,2.43c0.05,5.29,0.01,10.57,0.02,15.86
				c0,1.57-0.02,3.14,0.01,4.72c0.06,4.57,0.26,4.8,4.89,4.83c6.29,0.04,12.58,0.05,18.86-0.01c4.02-0.04,4.44-0.44,4.47-4.44
				c0.06-8,0.16-16.01-0.04-24c-0.09-3.64,1.11-5.93,4.56-7.26c2.52-0.97,4.87-2.39,7.33-3.54c1.52-0.71,2.51-0.21,2.65,1.53
				c0.09,1.14,0.09,2.28,0.09,3.43c0.01,9.86-0.02,19.72,0.02,29.58c0.02,4.38,0.31,4.68,4.59,4.7c3.99,0.02,7.99,0.2,11.96-0.6
				c7.26-1.46,11.45-5.98,11.56-13.28c0.08-5.68,0.86-11.44-0.97-17.02c-0.46-1.41,0.09-2.5,1.06-3.47
				c2.12-2.12,4.18-4.31,6.38-6.35c2.02-1.89,2.86-1.74,4.21,0.76c2.72,5.01,3.64,10.51,3.9,16.11c0.23,4.85,0.11,9.71-0.66,14.53
				c-1.67,10.35-7.39,17.42-17.18,21.17c-6.02,2.3-12.3,2.34-18.61,2.01c-0.97-0.05-2.05-0.29-2.86-0.79c-1.67-1.04-3-1.87-4.48,0.4
				c-0.58,0.89-2.14,0.54-3.27,0.54c-10.15,0.01-20.29,0-30.44,0c-1.44,0-2.9-0.04-4.19-0.72c-1.82-0.96-3.46-2.48-5.27,0.24
				c-0.4,0.6-2.15,0.41-3.28,0.42c-10.57,0.03-21.15,0.01-31.72,0.01c-1.73,0-3.48-0.01-5.04-0.78c-1.9-0.93-3.48-2.1-5.35,0.35
				c-0.74,0.97-2.72,0.43-4.14,0.43c-9.57,0.01-19.15,0.01-28.72,0.01c-61.3,0-122.61,0-183.91,0c-3.13,0-6.33,0.31-9.03-1.86
				c-0.64-0.52-1.32-0.62-1.77,0.23c-0.91,1.75-2.57,1.61-4.12,1.61c-11,0.02-22.01,0.01-33.01,0c-2.33,0-4.4-0.78-6.52-1.79
				c-2.2-1.04-3.31,2.02-5.85,1.94c-10.99-0.35-22-0.15-33.01-0.15c-2.37,0-4.57-0.56-6.26-2.3c-1.24-1.28-2.3-1.42-3.58-0.07
				c-1.92,2.02-4.43,2.4-7.09,2.39c-8.29-0.03-16.58-0.2-24.86,0.09c-3.13,0.11-5.5-1.83-8.4-2.04c-2.12,3.29-5.46,1.86-8.23,1.88
				c-19.86,0.13-39.73,0.07-59.59,0.07c-30.58,0-61.16-0.01-91.74,0.01c-3.61,0-7.18,0.02-10.01-2.43c-1.67,0.8-1.14,2.1-1.18,3.13
				c-0.12,3.14,0.16,6.29-0.41,9.41c-2.19,12-12.19,20.7-24.94,21.62c-6.73,0.49-13.09-0.79-18.88-4.38
				c-7.03-4.37-10.76-10.83-11.9-18.91c-0.46-3.26-0.72-6.52-0.63-9.82c0.06-2.41,1.02-4.03,3.24-5.05
				c2.72-1.26,5.33-2.76,8.07-3.97c2.12-0.94,3-0.45,3.1,1.84c0.18,3.99,0.05,8,0.13,12c0.16,7.71,3.96,12.34,11.35,13.94
				c8.06,1.75,16.16-4.16,16.74-12.38c0.25-3.56,0.1-7.14,0.1-10.71c0.01-9,0.08-18-0.03-27c-0.04-2.93,0.85-4.9,3.67-6.03
				c2.24-0.91,4.34-2.18,6.54-3.22c3.26-1.53,3.72-1.28,3.79,2.21c0.08,3.86,0.02,7.72,0.02,11.57c0,3.29-0.05,6.57,0.02,9.86
				c0.08,3.77,0.54,4.22,4.16,4.37c1,0.04,2,0.02,3,0.02c47.44,0,94.89,0,142.33,0c7.06,0,7.07-0.01,7.07-7.08
				c0.01-7.57,0.09-15.15-0.04-22.72c-0.05-2.82,0.95-4.58,3.55-5.65c1.98-0.81,3.83-1.91,5.76-2.85c4.17-2.02,4.63-1.76,4.7,2.71
				c0.05,3.29,0.01,6.57,0.01,9.86c0,7-0.04,14,0.02,21c0.03,4.25,0.45,4.67,4.69,4.71c6.43,0.06,12.86,0.05,19.29,0
				c4.32-0.03,4.87-0.44,4.77-4.59c-0.21-8.68,1-17.45-1.25-26.03c-0.37-1.39,0.07-2.53,1.03-3.51c2.21-2.24,4.37-4.52,6.66-6.67
				c1.73-1.62,2.38-1.51,3.6,0.58c2.75,4.67,3.9,9.8,3.96,15.17c0.07,6.57-0.01,13.14,0.04,19.71c0.03,4.31,0.41,4.71,4.62,4.75
				c7.14,0.06,14.29,0.06,21.43,0c4.22-0.03,4.59-0.41,4.59-4.76c0.03-21.29,0.01-42.58,0.03-63.87
				C400.69,46.2,400.39,44.48,401.71,41.75z"/>
			<path class="st1" d="M247.5,302.75c-16.44,0.11-30.92-4.96-42.74-16.62c-8.87-8.75-13.75-19.5-15.09-31.89
				c-1.67-15.52,2.08-29.48,12.03-41.59c8.22-10.01,18.99-15.96,31.53-18.52c19.78-4.04,38.1-0.76,54.11,12.14
				c8.01,6.45,13.43,14.8,16.29,24.65c4.6,15.84,3.24,31.13-5.36,45.4c-8.56,14.21-21.59,22-37.55,25.4
				C256.35,302.65,251.94,302.69,247.5,302.75z M247.67,281.07c14.26,0.65,27.6-8.22,31.63-23.69c1.39-5.33,1.56-10.64,0.67-16.12
				c-4.36-26.78-34.12-33.34-51.44-21.36c-8.08,5.59-12.18,13.55-13.35,22.99C212.52,264.34,226.96,281.71,247.67,281.07z"/>
			<path class="st1" d="M445.3,256.2c0-2.86,0-5.71,0-8.57c0-15.14,0-30.29,0-45.43c0-1.14-0.02-2.29,0.01-3.43
				c0.13-3.92,0.5-4.37,4.57-4.38c15.29-0.04,28.79-0.15,44.08,0.07c7.48,0.11,14.76,1.83,21.54,5.08
				c15.15,7.26,21.73,20.93,20.61,36.78c-0.9,12.67-6.78,22.51-18.17,28.75c-3.18,1.74-3.2,2.05-1.01,5.2
				c6.12,8.79,12.29,17.55,18.4,26.35c0.77,1.11-2.41,0.19-3.35,1.7c-0.72,1.15,2.46,2.6,1.21,2.61
				c-5.86,0.04-11.72-0.14-17.57,0.08c-3.24,0.12-5.35-1.04-7.12-3.68c-4.95-7.35-10.16-14.51-15.06-21.89
				c-1.77-2.67-3.78-3.94-7.03-3.79c-4.56,0.21-9.14,0-13.71,0.08c-3.54,0.06-3.96,0.46-4,3.99 M468.67,232.62
				C468.67,232.62,468.67,232.62,468.67,232.62c0.01,4.99-0.06,9.97,0.04,14.96c0.06,2.78,0.58,3.39,3.24,3.41
				c7.26,0.07,14.55,0.27,21.79-0.18c8.31-0.51,14.32-5.42,16.21-12.39c2.93-10.78-2.4-19.85-13.24-22.46
				c-1.52-0.37-3.08-0.72-4.63-0.74c-6.55-0.1-13.11-0.14-19.66-0.07c-3.22,0.03-3.67,0.53-3.73,3.79
				C468.6,223.5,468.67,228.06,468.67,232.62z"/>
			<path class="st1" d="M1040.93,131.03c-24.72,0-49.44,0-74.16,0c-1,0-2-0.02-3,0.01c-3.44,0.13-3.83,0.35-4.73,3.72
				c-1.5,5.61-3.9,10.69-7.77,15.09c-6.23,7.09-14.13,10.93-23.3,12.51c-2.12,0.37-3.27-0.34-3.73-2.4
				c-0.63-2.79-1.54-5.48-2.72-8.11c-1-2.22-0.76-2.61,1.81-3.04c5.29-0.89,10.25-2.44,14.47-5.97c2.93-2.45,5-5.49,6.34-9.01
				c0.75-1.98,0.3-2.67-1.82-2.76c-3.14-0.13-6.29-0.11-9.43-0.04c-3.03,0.07-6-0.37-8.91-1.06c-13.25-3.13-22.21-16.34-20.49-30.14
				c1.15-9.26,4.89-16.97,13.27-21.84c10.41-6.05,25.57-4.83,34.56,3.14c5.59,4.95,8.35,11.51,8.69,18.97c0.18,3.99,0.01,8,0.09,12
				c0.09,4.35,0.67,4.95,5.02,4.96c11.43,0.04,22.86,0.02,34.29,0.02c21.29,0,42.58,0.01,63.87,0c5.65,0,5.48,0.02,4.02-5.45
				c-2.69-10.05-1.7-19.52,4.98-27.96c1.63-2.06,3.64-3.64,5.77-5.07c9.38-6.29,27.86-6.89,37.74,4.63
				c4.65,5.43,6.79,11.9,6.96,18.94c0.2,8,0.1,16,0.03,24c-0.04,4.3-0.6,4.83-5.12,4.84c-19.86,0.04-39.72,0.02-59.58,0.02
				C1052.37,131.02,1046.65,131.02,1040.93,131.03C1040.93,131.03,1040.93,131.03,1040.93,131.03z M946.02,107.52
				c-0.01,0-0.02,0-0.03,0c0-2.14,0.18-4.29-0.03-6.41c-0.66-6.64-5.05-11.36-11.51-12.6c-6.18-1.19-12.22,1.69-15.12,7.19
				c-2.87,5.45-1.66,13.21,2.73,17.43c1.57,1.51,3.43,2.57,5.56,3.04c5.2,1.15,10.48,0.98,15.75,0.85c1.72-0.04,2.63-0.94,2.65-2.67
				C946.04,112.08,946.02,109.8,946.02,107.52z M1108.21,107.47c0.02,0,0.03,0,0.05,0c0-1.71,0.05-3.43-0.01-5.14
				c-0.35-10.38-9.33-16.54-19.14-13.16c-5.56,1.91-9.11,7.32-9.02,13.72c0.08,6.16,3.79,11.56,9.26,13.04
				c5.3,1.43,10.76,1.29,16.19,1.1c1.72-0.06,2.64-0.99,2.67-2.7C1108.24,112.04,1108.21,109.75,1108.21,107.47z"/>
			<path class="st1" d="M722.93,242.12c1.12-0.11,1.58-0.69,2.06-1.2c11.45-12.16,23.02-24.22,34.3-36.54
				c9.05-9.87,8.89-10.02,22.19-10.02c3.71,0,7.43-0.03,11.14,0.02c1.07,0.02,2.3-0.38,3.15,0.66c0.24,1.09-0.56,1.6-1.11,2.2
				c-7.67,8.27-15.35,16.53-23.05,24.78c-5.16,5.53-10.37,11.03-15.53,16.56c-2.92,3.13-2.9,3.5-0.27,6.82
				c13.47,17.02,26.94,34.05,40.38,51.09c0.86,1.09,1.96,2.07,2.35,3.48c-0.86,1.3-2.11,0.92-3.17,0.93
				c-7.14,0.04-14.29-0.06-21.43,0.06c-2.68,0.05-4.52-0.86-6.21-2.96c-9.49-11.79-19.11-23.48-28.69-35.2
				c-2.5-3.06-2.54-3.09-5.16-0.47c-2.83,2.83-5.57,5.75-8.4,8.57c-2.14,2.14-3.12,4.59-3.03,7.68c0.16,5.85,0.08,11.71,0.03,17.57
				c-0.04,4.31-0.42,4.71-4.61,4.75c-5.43,0.06-10.86,0.07-16.29-0.01c-3.5-0.05-3.93-0.55-4.12-3.96
				c-0.05-0.85-0.02-1.71-0.02-2.57c0-31.14,0-62.28,0-93.42c0-6.57,0.01-6.57,6.69-6.58c4.57-0.01,9.14-0.04,13.72,0.02
				c4.21,0.06,4.62,0.44,4.63,4.74c0.04,12.71,0.01,25.43,0.03,38.14C722.52,238.81,722.24,240.4,722.93,242.12z"/>
			<path class="st1" d="M419.77,229.82c0,9.29,0.09,18.58-0.03,27.86c-0.1,7.97-1.96,15.58-5.62,22.68
				c-4.79,9.31-12.1,16.01-22.07,19.17c-15.47,4.9-30.95,5.07-45.95-2c-10.61-5-16.97-13.69-20.48-24.64
				c-1.98-6.18-2.73-12.59-2.78-19.01c-0.14-18-0.05-36.01-0.05-54.01c0-0.86,0.03-1.71,0.08-2.57c0.1-1.89,1.08-2.88,2.99-2.88
				c6.43-0.01,12.86-0.01,19.29-0.02c2.08,0,3.2,0.97,3.25,3.09c0.03,1.29,0.06,2.57,0.06,3.86c0.01,17.86,0.03,35.72,0.01,53.58
				c-0.01,4.18,0.45,8.26,1.85,12.22c3.17,8.98,9.51,13.65,19,13.89c4,0.1,8,0.2,11.85-1.29c4.45-1.72,7.87-4.56,10.09-8.81
				c2.5-4.8,3.46-9.96,3.47-15.31c0.03-18,0.03-36.01,0.05-54.01c0.01-7.24,0.01-7.24,7.32-7.24c4.14,0,8.29-0.03,12.43,0.01
				c4.98,0.04,5.23,0.29,5.25,5.43c0.03,10,0.01,20.01,0.01,30.01C419.79,229.82,419.78,229.82,419.77,229.82z"/>
			<path class="st1" d="M635.56,302.62c-13.11,0.35-25.54-2.4-37.2-8.41c-6.25-3.22-6.28-3.43-3.39-9.72
				c1.61-3.5,3.22-7.01,4.8-10.53c0.85-1.88,2.01-2.13,3.72-1.01c8.56,5.61,18.13,8.23,28.19,9.41c5.63,0.66,11.11,0.03,16.51-1.57
				c1.95-0.58,3.66-1.56,5.11-3.01c4.05-4.05,3.9-8.98-0.52-12.62c-2.81-2.32-6.18-3.56-9.66-4.46c-5.95-1.54-11.92-2.99-17.88-4.45
				c-5.29-1.3-10.34-3.21-15.28-5.53c-18.08-8.5-18.71-29.93-10.19-42.06c4.91-7,11.81-11.19,19.85-13.38
				c18.04-4.91,35.64-3.39,52.72,4.22c0.52,0.23,1.03,0.49,1.53,0.78c2.65,1.54,2.86,1.93,1.77,4.78c-1.69,4.4-3.45,8.78-5.29,13.11
				c-1.19,2.8-1.66,2.98-4.55,1.54c-5.27-2.63-10.72-4.7-16.53-5.77c-5.79-1.06-11.6-1.53-17.44-0.37
				c-2.82,0.56-5.58,1.28-7.94,3.02c-5.8,4.28-5.6,11.41,0.45,15.29c2.8,1.79,5.97,2.74,9.15,3.56c6.78,1.74,13.58,3.38,20.37,5.1
				c4.45,1.12,8.69,2.81,12.76,4.93c20.99,10.92,17.36,37.29,3.36,47.72c-8.07,6.02-17.25,8.72-27.14,9.4
				C640.43,302.76,637.99,302.62,635.56,302.62z"/>
			<path class="st1" d="M1077.03,302.61c-11.45,0.35-22.45-1.76-33.01-6.18c-2.64-1.11-5.21-2.36-7.56-4.01
				c-2.49-1.74-2.73-2.25-1.58-4.96c1.85-4.33,3.81-8.63,5.85-12.88c1.36-2.82,1.79-2.93,4.55-1.25c6.29,3.84,13.05,6.44,20.26,7.91
				c6.77,1.37,13.56,1.98,20.41,0.53c2.4-0.51,4.72-1.2,6.8-2.49c6.01-3.73,6.06-11.42,0.06-15.17c-3.56-2.22-7.61-3.25-11.62-4.31
				c-5.94-1.56-11.94-2.89-17.87-4.49c-5.4-1.45-10.65-3.35-15.33-6.49c-7.47-5.01-11.67-11.81-12.01-21.04
				c-0.52-14.24,5.95-23.97,18.48-30.09c5.2-2.54,10.72-4.01,16.44-4.59c14.6-1.49,28.82-0.17,42.25,6.27
				c0.64,0.31,1.29,0.62,1.91,0.98c2.66,1.55,2.89,1.95,1.82,4.79c-1.67,4.41-3.44,8.78-5.28,13.12c-1.11,2.63-1.56,2.81-4.23,1.48
				c-4.37-2.18-8.87-3.94-13.61-5.11c-6.72-1.66-13.49-2.31-20.37-1.15c-3,0.51-5.79,1.51-8.3,3.26c-5.42,3.8-5.53,12.37,1.08,15.49
				c4.98,2.35,10.17,3.75,15.47,4.94c6.13,1.39,12.26,2.77,18.22,4.84c3.66,1.27,7.15,2.86,10.46,4.89
				c8.59,5.28,12.54,13.22,12.39,23.02c-0.16,10.75-5.17,19.15-14.11,25.1c-7.33,4.88-15.61,6.92-24.29,7.54
				C1081.9,302.75,1079.46,302.61,1077.03,302.61z"/>
			<path class="st1" d="M946.02,354.51c-0.31-1.2-1.47-1.66-2.26-2.45c-1.32-1.33-2.5-2.73-3.32-4.44
				c-2.07-4.35-0.09-7.28,4.78-7.12c1.06,0.04,1.56,0.66,1.8,1.51c1.22,4.26,4.35,5.67,8.43,5.91c3.67,0.22,7.02,1.46,9.73,3.98
				c1.61,1.5,3.4,1.92,5.48,1.88c2.43-0.05,4.86-0.05,7.29,0.02c8.19,0.24,13.3,4.61,14.94,12.64c0.49,2.41,0.42,4.83,0.47,7.26
				c0.04,2.08,0.96,3.2,3.11,3.18c6-0.04,12.02,0.21,17.99-0.16c6.3-0.39,10.33-3.74,11.82-8.95c1.09-3.81-0.24-5.82-4.2-6
				c-3.28-0.15-6.57,0-9.86-0.09c-3.18-0.09-6.16-3.36-6.04-6.46c0.03-0.9,0.6-1.27,1.35-1.34c0.99-0.1,2-0.11,2.99-0.11
				c13.15-0.01,26.29-0.01,39.44,0c1,0,2,0.02,2.99,0.13c0.79,0.09,1.22,0.56,1.2,1.44c-0.09,3.95-2.37,6.3-6.28,6.36
				c-2.71,0.04-5.44-0.09-8.14,0.09c-3.44,0.22-4.84,2.12-4.08,5.5c0.8,3.54,2.87,6.19,6.15,7.8c2.47,1.22,5.12,1.79,7.87,1.81
				c3.57,0.03,7.14,0.05,10.72,0.04c5.75-0.01,5.78-0.02,5.86-5.61c0.03-2.01,0.23-3.99,0.7-5.94c1.98-8.32,9.34-12.88,18.38-11.4
				c7.74,1.27,13.09,8.46,12.31,16.56c-0.82,8.47-6.34,14.05-14.87,14.23c-11.85,0.25-23.72,0.19-35.57,0
				c-5.12-0.08-9.74-1.98-13.65-5.46c-2.46-2.19-2.58-2.2-4.88-0.09c-4.35,3.99-9.54,5.61-15.31,5.63
				c-12.14,0.03-24.29,0.01-36.43,0.01c-1.14,0-2.29,0.04-3.43,0.02c-2.04-0.03-3.04,0.86-3.36,2.99c-0.53,3.45-2.77,5.39-6.16,5.97
				c-1.31,0.22-1.95-0.39-2.09-1.5c-0.2-1.55-0.19-3.13-0.28-4.7c-0.1-1.69-0.98-2.63-2.69-2.7c-1.14-0.05-2.28-0.07-3.43-0.07
				c-10.43-0.01-20.86,0-31.29,0c-8.69,0-17.39,0.04-26.08-0.03c-3.86-0.03-4.64-0.93-4.41-4.52c0.17-2.61,0.66-3.24,3.41-3.31
				c5.14-0.12,10.29-0.01,15.43-0.08c3.88-0.05,4.22-0.39,4.25-4.13c0.01-1.42-0.04-2.87-0.32-4.26c-0.93-4.63-3.28-6.63-7.96-6.79
				c-2.71-0.1-5.43,0.02-8.14-0.06c-3.83-0.11-3.94-0.52-2.72-3.97c1.08-3.04,2.93-4.3,6.1-3.99c1.7,0.17,3.43,0.14,5.14,0.02
				c7.89-0.55,15.26,5.37,15.81,15.12c0.1,1.85,0.06,3.71,0.15,5.57c0.07,1.52,0.94,2.39,2.45,2.42c3.71,0.05,7.43,0.06,11.14,0.03
				c1.69-0.01,1.78-1.03,1.31-2.34c-1.07-3.01-1.24-6.13-1.25-9.29c-0.01-4.25,1.36-7.53,5.62-9.14
				C944.89,355.85,945.8,355.55,946.02,354.51z M961.62,368.12c0.01,0,0.01,0,0.02,0c0-1.71,0.09-3.42-0.02-5.12
				c-0.26-4.01-2.28-6.32-6.18-7.01c-1.39-0.25-2.84-0.28-4.26-0.24c-2.83,0.08-3.87,0.93-4.03,3.85c-0.19,3.55-0.1,7.12-0.02,10.67
				c0.06,2.51,1.56,4.26,3.59,5.49c2.87,1.74,6.06,1.33,9.16,0.96c1.33-0.16,1.7-1.41,1.72-2.61
				C961.65,372.11,961.62,370.11,961.62,368.12z M970.17,369.11c0,0.29,0,0.57,0,0.86c-0.05,7.53,0.01,6.99,7.05,7
				c7.88,0.01,8.67-0.95,7.49-9.01c-0.51-3.5-2.64-5.63-6.14-6.12C971.06,360.77,970.18,361.54,970.17,369.11z M1080.59,376.95
				c0.47-0.04,1.77-0.01,3.01-0.3c4.11-0.95,6.28-4.32,5.71-8.69c-0.51-3.89-3.36-6.27-7.4-6.17c-4.16,0.1-6.72,2.61-7.08,6.99
				c-0.09,1.13-0.08,2.28-0.06,3.42C1074.84,376.63,1075.18,376.94,1080.59,376.95z"/>
			<path class="st1" d="M730.11,384.84c-6.72,0-13.44,0.17-20.14-0.05c-6.76-0.22-11.61-3.91-13.69-9.86
				c-2.28-6.53-0.66-13.37,4.22-17.64c0.75-0.65,1.57-1.25,2.44-1.72c4.82-2.62,7.64-0.96,7.74,4.49c0.02,1.4-0.97,1.58-1.91,1.88
				c-2.33,0.73-4.01,2.16-4.82,4.5c-1.72,4.95,1.23,9.72,6.43,10.43c0.56,0.08,1.14,0.09,1.71,0.09c9.72,0.01,19.43,0.04,29.15-0.01
				c3.8-0.02,4.19-0.43,4.26-4.17c0.08-4.57-0.05-9.15,0.1-13.71c0.1-3.18,1.3-4.65,3.61-5.09c2.74-0.52,4.08,0.41,4.2,3.25
				c0.14,3.28,0.03,6.57,0.07,9.86c0.14,11.49-1.47,9.72,10.1,9.9c1,0.01,2,0.03,3-0.02c3.22-0.16,3.61-0.5,3.68-3.85
				c0.09-4.71-0.04-9.43,0.08-14.14c0.09-3.45,1.58-4.98,4.5-5.07c2.32-0.07,3.27,0.54,3.3,2.89c0.12,8.28,0.12,16.57,0.02,24.85
				c-0.03,2.59-0.68,3.08-3.51,3.2c-2.85,0.12-5.71,0.05-8.57,0.05c-7.69,0-15.39,0-23.08,0c-4.29,0-8.57,0-12.86,0
				C730.11,384.86,730.11,384.85,730.11,384.84z"/>
			<path class="st1" d="M885.32,108.96c0,8.7,0.09,17.39-0.03,26.09c-0.11,8.02-2.65,15.11-8.74,20.64
				c-0.32,0.29-0.63,0.58-0.96,0.86c-4.26,3.54-5,3.4-7.39-1.41c-0.13-0.26-0.21-0.54-0.38-0.77c-3.2-4.15-4.17-7.75,0.69-11.86
				c2.82-2.38,2.87-6.68,2.87-10.45c0-13.97,0-27.94,0-41.91c0-1.14,0.06-2.28,0-3.42c-0.13-2.24,0.72-3.8,2.82-4.77
				c2.59-1.19,5.08-2.61,7.67-3.79c2.6-1.19,3.34-0.77,3.4,2.13c0.12,5.56,0.05,11.12,0.05,16.68
				C885.32,100.98,885.32,104.97,885.32,108.96z"/>
			<path class="st1" d="M846.5,384.85c-4.22-0.38-9.66-0.33-15.01-0.4c-5.33-0.06-10.79,0.19-16.18,0.41
				c-1.14,0.05-2.29,0.06-3.42-0.07c-2.52-0.28-3.09-1.12-3.01-4.15c0.08-2.74,0.59-3.54,3.08-3.61c5.13-0.14,10.27-0.04,15.41-0.1
				c4.37-0.05,4.57-0.27,4.63-4.63c0.01-1.14,0.04-2.29-0.08-3.42c-0.43-4.1-3.11-6.81-7.25-7.07c-3.13-0.2-6.28-0.02-9.41-0.13
				c-3.28-0.11-3.59-0.62-2.42-3.48c1.78-4.36,1.83-4.4,6.59-4.43c1.85-0.01,3.71-0.02,5.56,0.03c8.69,0.26,14.4,5.79,14.92,14.46
				c0.12,1.99,0.07,3.99,0.11,5.99c0.04,1.73,0.96,2.62,2.68,2.63c3.71,0.02,7.42,0,11.13,0.03c2.25,0.02,2.96-1.27,2.96-3.28
				c-0.01-3.99,0-7.99,0.02-11.98c0.01-1.28-0.05-2.58,0.11-3.85c0.32-2.59,1.68-3.8,4.21-3.94c2.46-0.14,3.49,0.56,3.53,3.12
				c0.12,8.13,0.12,16.26,0.02,24.39c-0.03,2.81-0.72,3.37-3.73,3.44C856.52,384.93,852.09,384.85,846.5,384.85z"/>
			<path class="st1" d="M464.68,155.5c-0.43,0.63-0.74,1.27-1.22,1.76c-2.39,2.45-4.84,4.83-7.24,7.27
				c-1.24,1.26-2.41,1.32-3.66,0.03c-1.39-1.43-2.81-2.84-4.24-4.22c-2.64-2.54-2.65-2.54-5.43,0.15c-1.43,1.39-2.84,2.8-4.26,4.21
				c-1.22,1.22-2.44,1.32-3.7,0.05c-2.51-2.53-5.01-5.06-7.55-7.57c-1.32-1.3-1.08-2.45,0.15-3.65c2.45-2.39,4.87-4.8,7.27-7.24
				c1.42-1.45,2.7-1.24,4.03,0.12c1.5,1.52,3.07,2.98,4.57,4.5c1.37,1.38,2.65,1.36,4.06,0.02c1.75-1.67,3.6-3.23,5.41-4.84
				c1.02-0.91,2.04-0.91,3.02,0.05c2.63,2.6,5.27,5.21,7.87,7.85C464.14,154.35,464.34,154.92,464.68,155.5z"/>
			<path class="st1" d="M797.77,373.77c-0.24,4.83,0.47,10.55-0.62,16.22c-0.7,3.67-2.38,6.71-5.4,8.92
				c-1.87,1.37-2.48,1.16-3.7-0.77c-1.52-2.41-2.6-4.64,0.01-7.2c1.48-1.45,1.21-3.72,1.21-5.73c0.01-7.13-0.02-14.27,0.02-21.4
				c0.02-4.81,0.58-5.59,4.96-7.32c2.55-1.01,3.24-0.59,3.46,2.29c0.13,1.7,0.05,3.42,0.06,5.13
				C797.78,366.92,797.77,369.91,797.77,373.77z"/>
			<path class="st1" d="M1094.14,59.55c-0.62-0.45-1.26-0.79-1.75-1.27c-2.46-2.39-4.86-4.83-7.31-7.22
				c-1.26-1.23-1.34-2.39-0.05-3.66c2.44-2.4,4.86-4.83,7.26-7.27c1.23-1.25,2.39-1.38,3.67-0.07c2.5,2.55,5.04,5.05,7.55,7.59
				c0.89,0.9,1.39,1.99,0.4,3.02c-2.67,2.78-5.41,5.48-8.17,8.17C1095.36,59.19,1094.73,59.29,1094.14,59.55z"/>
			<path class="st1" d="M765.39,403.31c-1.68-0.19-2.56-1.61-3.63-2.69c-2.45-2.46-2.42-2.67-0.05-5.15
				c0.49-0.51,1.03-0.98,1.52-1.5c1.43-1.52,2.93-1.71,4.41-0.15c1.63,1.72,3.19,2.26,5.02,0.24c0.85-0.95,1.96-1.95,3.33-1.02
				c1.75,1.19,3.63,2.45,4.2,4.62c0.37,1.42-1.09,2.2-1.94,3.1c-3,3.14-3.08,3.2-6.43,0.44c-1.42-1.16-2.44-1.14-3.65,0.12
				C767.4,402.12,766.66,403.04,765.39,403.31z"/>
			<path class="st1" d="M867.91,340.37c-0.82,2.1-2.63,3.51-4.39,4.87c-1.38,1.07-2.3-0.31-3.26-1.08c-2.48-1.99-2.48-1.98-4.88,0
				c-2.65,2.19-3.13,2.12-5.84-0.77c-2.39-2.56-2.4-3.11-0.05-5.64c0.48-0.52,1.03-0.98,1.5-1.51c1.25-1.39,2.39-1.61,3.98-0.26
				c2.75,2.35,2.9,2.32,5.77-0.05c1.36-1.12,2.45-1.3,3.66,0.02C865.61,337.28,867.26,338.28,867.91,340.37z"/>
			<path class="st1" d="M734.81,398.42c-0.04,1.44-3.86,5.11-5.28,5.07c-1.41-0.03-5.59-4.17-5.51-5.46
				c0.08-1.19,4.18-5.12,5.34-5.12C730.7,392.92,734.84,397.1,734.81,398.42z"/>
			<rect x="61.14" y="242.03" class="st1" width="113.37" height="20.3"/>
			<rect x="99.77" y="194.36" class="st1" width="81.52" height="20.54"/>
			<rect x="99.77" y="202.65" class="st1" width="25.91" height="98.22"/>
			<rect x="322.77" y="194.33" class="st1" width="25.72" height="52.29"/>
			<rect x="394.77" y="194.36" class="st1" width="25.03" height="52.26"/>
			<rect x="443.51" y="194.36" class="st1" width="25.15" height="106.6"/>
			<polygon class="st1" points="494.84,277.54 510.82,300.96 538.48,300.96 518.09,271.93 			"/>
			<polygon class="st1" points="770.13,223.61 797.54,194.35 768.6,194.36 743.79,221.02 			"/>
			<polygon class="st1" points="780.81,277.02 799.9,301 770.13,301 754.57,281.8 			"/>
			<rect x="697.44" y="194.33" class="st1" width="25.07" height="106.67"/>
			<rect x="859.44" y="194.33" class="st1" width="25.07" height="106.67"/>
			<rect x="810.02" y="194.33" class="st1" width="25.07" height="106.67"/>
			<rect x="859.44" y="280.22" class="st1" width="78.33" height="20.68"/>
			<rect x="950.58" y="194.33" class="st1" width="25.07" height="106.67"/>
			<rect x="950.58" y="280.22" class="st1" width="78.33" height="20.68"/>
			<g>
				<path class="st1" d="M102.46,353.54h29.3v5.69h-11.61v27.45h-6.07v-27.45h-11.61V353.54z"/>
				<path class="st1" d="M161.95,375.3l8.53,11.38h-7.21l-7.63-10.24h-10v10.24h-6.12v-33.14h17.4c3.19,0,5.93,1.12,8.2,3.37
					c2.28,2.24,3.41,4.95,3.41,8.11c0,2.24-0.6,4.28-1.8,6.11C165.54,372.96,163.95,374.35,161.95,375.3z M156.74,370.56
					c1.58,0,2.92-0.54,4.03-1.61c1.11-1.07,1.66-2.39,1.66-3.93s-0.55-2.87-1.66-3.96c-1.11-1.09-2.45-1.64-4.03-1.64h-11.09v11.14
					H156.74z"/>
				<path class="st1" d="M194.95,353.54l13.23,33.14h-6.16l-2.99-7.44h-16.17l-2.99,7.44h-6.21l13.27-33.14H194.95z M185.09,373.69
					h11.71l-5.88-14.65L185.09,373.69z"/>
				<path class="st1" d="M221.02,386.68h-6.11v-33.14h6.11V386.68z"/>
				<path class="st1" d="M261.5,353.54v33.14h-4.46l-19.58-22.75v22.75h-6.12v-33.14h4.46l19.58,22.71v-22.71H261.5z"/>
				<path class="st1" d="M277.95,386.68h-6.11v-33.14h6.11V386.68z"/>
				<path class="st1" d="M318.44,353.54v33.14h-4.46l-19.58-22.75v22.75h-6.12v-33.14h4.46l19.58,22.71v-22.71H318.44z"/>
				<path class="st1" d="M344.46,368.14h15.31c0.06,0.44,0.09,1.09,0.09,1.94c0,4.87-1.45,8.93-4.36,12.18
					c-3.16,3.54-7.22,5.31-12.18,5.31c-4.8,0-8.91-1.71-12.33-5.14c-3.41-3.43-5.12-7.55-5.12-12.35c0-4.8,1.71-8.91,5.12-12.33
					c3.41-3.41,7.52-5.12,12.33-5.12c2.78,0,5.42,0.63,7.92,1.9c2.5,1.26,4.57,3.02,6.21,5.26l-5.03,3.51
					c-1.08-1.42-2.41-2.54-4.01-3.37c-1.6-0.82-3.29-1.23-5.1-1.23c-3.13,0-5.8,1.11-8.01,3.34c-2.21,2.23-3.32,4.91-3.32,8.04
					s1.11,5.81,3.32,8.04c2.21,2.23,4.88,3.34,8.01,3.34c2.59,0,4.73-0.7,6.42-2.11c1.69-1.41,2.85-3.22,3.48-5.43h-8.77V368.14z"/>
				<path class="st1" d="M387.69,386.68h-6.11v-33.14h6.11V386.68z"/>
				<path class="st1" d="M425.9,353.54v33.14h-4.46l-19.58-22.75v22.75h-6.12v-33.14h4.46l19.58,22.71v-22.71H425.9z"/>
				<path class="st1" d="M447.33,367.39c1.42,0.44,2.57,0.82,3.44,1.14c0.87,0.32,1.91,0.78,3.13,1.4c1.22,0.62,2.16,1.25,2.84,1.9
					c0.68,0.65,1.27,1.48,1.78,2.49c0.51,1.01,0.76,2.12,0.76,3.32c0,1.77-0.39,3.31-1.16,4.62c-0.77,1.31-1.84,2.32-3.2,3.03
					c-1.36,0.71-2.84,1.24-4.46,1.59c-1.61,0.35-3.37,0.52-5.26,0.52c-4.8,0-9.32-1.22-13.56-3.65l3.08-4.88
					c3.7,2.02,7.27,3.03,10.71,3.03c4.99,0,7.49-1.31,7.49-3.94c0-0.69-0.2-1.32-0.59-1.87c-0.4-0.55-1.02-1.04-1.87-1.47
					c-0.85-0.43-1.65-0.77-2.39-1.04c-0.74-0.27-1.78-0.61-3.1-1.02c-0.06-0.03-0.12-0.05-0.17-0.05c-0.05,0-0.1-0.02-0.14-0.05
					c-0.05-0.03-0.1-0.05-0.17-0.05c-1.55-0.47-2.73-0.85-3.56-1.14c-0.82-0.28-1.87-0.73-3.15-1.35c-1.28-0.62-2.25-1.25-2.92-1.9
					c-0.66-0.65-1.26-1.49-1.78-2.54c-0.52-1.04-0.78-2.21-0.78-3.51c0-2.69,1.11-4.85,3.32-6.5c2.4-1.74,5.8-2.61,10.19-2.61
					c4.3,0,8.56,1.22,12.8,3.65l-2.99,4.74c-3.54-1.96-6.91-2.94-10.1-2.94c-2.24,0-3.95,0.31-5.12,0.92
					c-1.17,0.62-1.75,1.45-1.75,2.49c0,0.57,0.16,1.1,0.47,1.59c0.32,0.49,0.66,0.89,1.04,1.21c0.38,0.32,0.99,0.66,1.82,1.02
					c0.84,0.36,1.52,0.63,2.06,0.81c0.54,0.17,1.37,0.43,2.51,0.78C446.92,367.24,447.17,367.32,447.33,367.39z"/>
				<path class="st1" d="M463.31,353.54h29.3v5.69h-11.61v27.45h-6.07v-27.45h-11.61V353.54z"/>
				<path class="st1" d="M504.55,386.68h-6.11v-33.14h6.11V386.68z"/>
				<path class="st1" d="M510.33,353.54h29.3v5.69h-11.61v27.45h-6.07v-27.45h-11.61V353.54z"/>
				<path class="st1" d="M569.59,353.54h6.07v18.54c0,4.27-1.52,7.92-4.55,10.95c-3.03,3.03-6.7,4.55-11,4.55
					c-4.3,0-7.96-1.52-11-4.55s-4.55-6.68-4.55-10.95v-18.54h6.12v18.54c0,2.59,0.92,4.8,2.77,6.64c1.85,1.83,4.07,2.75,6.66,2.75
					c2.62,0,4.86-0.92,6.71-2.75c1.85-1.83,2.77-4.05,2.77-6.64V353.54z"/>
				<path class="st1" d="M580.59,353.54h29.3v5.69h-11.61v27.45h-6.07v-27.45h-11.61V353.54z"/>
				<path class="st1" d="M642.5,359.23h-20.57v8.01h17.02v5.74h-17.02v7.96h20.57v5.74h-26.69v-33.14h26.69V359.23z"/>
			</g>
			<g>
				<g>
					<path class="st2" d="M1244.87,116.25c-0.21-4.53-3.89-7.77-8.18-7.7c-4.52,0.07-7.84,3.11-7.92,7.86
						c-0.16,9.86-0.06,19.72-0.04,29.57c0,1.75,0.46,3.38,1.53,4.81c2.03,2.71,5.48,3.92,8.78,3.03c3.2-0.86,5.68-3.62,5.82-7.15
						c0.2-4.99,0.05-10,0.05-15c0,0,0.01,0,0.01,0C1244.92,126.53,1245.11,121.38,1244.87,116.25z"/>
					<path class="st3" d="M1335.95,28.94c-61.45,0-122.91,0-184.36,0c-1.14,0-2.29-0.01-3.43,0.06c-1.83,0.11-2.15,1.1-1.41,2.62
						c0.44,0.9,0.88,1.8,1.36,2.68c2.19,4.03,4.39,8.05,6.58,12.07c2.94,5.38,5.87,10.77,8.75,16.18c3.21,6.02,2.87,4.95,7.64,1.86
						c15.81-10.25,32.68-12.27,50.39-5.92c21.82,7.82,37.01,29.58,36.4,53c-0.1,3.98-0.59,8.01,1.87,11.61
						c0.45,0.65,0.56,1.64,0.57,2.47c0.06,3.86,0.09,7.71,0.01,11.57c-0.05,2.41-1.21,4.37-2.97,5.98c-1.34,1.22-2.89,2-4.69,1.36
						c-1.93-0.69-1.59-2.52-1.61-4.04c-0.05-5.29-0.01-10.57-0.03-15.86c-0.01-2.86-0.1-5.66,1.76-8.18
						c0.84-1.13,0.72-2.73,0.81-4.16c0.22-3.5-0.49-6.92-0.94-10.34c-0.79-6.01-2.83-11.82-6.21-16.84
						c-1.53-2.28-2.45-4.8-5.62-3.57c-1.92,0.75-3.63-0.3-5.1-1.5c-0.99-0.81-1.86-1.77-2.81-2.64c-16.15-14.83-41-16.01-58.4-2.77
						c-3.05,2.32-3.11,2.64-1.32,5.94c6.4,11.81,12.79,23.62,19.19,35.42c10.02,18.46,20.07,36.9,30.09,55.36
						c6.99,12.88,13.89,25.82,20.97,38.66l99.11-181.01 M1244.86,146.67c-0.14,3.54-2.62,6.29-5.82,7.15
						c-3.3,0.89-6.75-0.32-8.78-3.03c-1.07-1.43-1.53-3.06-1.53-4.81c-0.01-9.86-0.12-19.72,0.04-29.57
						c0.08-4.75,3.4-7.79,7.92-7.86c4.29-0.07,7.97,3.17,8.18,7.7c0.24,5.13,0.06,10.28,0.06,15.43c0,0-0.01,0-0.01,0
						C1244.91,136.67,1245.06,141.68,1244.86,146.67z"/>
					<path class="st4" d="M1428.42,188.98c-10.27-18.97-20.5-37.97-30.78-56.93c-14.23-26.25-28.48-52.49-42.73-78.73
						c-4.15-7.64-8.37-16.65-12.38-24.37l-99.11,181.01h195.71 M1349.38,180.96c-7.97,1.53-15.95,1.3-23.48-2.23
						c-2.32-1.09-4.05-1-6.3,0.4c-7.39,4.62-16.97,3.24-23.11-3.03c0.57-1.51,2.14-1.77,3.28-2.54c1.9-1.28,3.75-2.59,5.08-4.52
						c2.07-3.01,2.64-5.75,0.84-9.46c-11.3-23.19,1.63-50.57,26.74-55.97c28.33-6.09,48.04,16.53,48.27,37.77
						C1380.91,160.52,1367.33,177.52,1349.38,180.96z"/>
					<path class="st4" d="M1325.91,112.37c-13.38,6.73-20.49,21.32-17.73,36.13c0.72,3.85,2.1,7.42,4.06,10.76
						c1.43,2.43,1.45,4.81,0.51,7.38c-0.84,2.31-2.02,4.4-3.39,6.41c-0.39,0.57-0.98,1.19-0.62,1.93c0.46,0.95,1.45,0.75,2.27,0.7
						c3.28-0.2,6.14-1.52,8.35-3.88c1.58-1.69,3.01-1.88,4.84-0.64c0.59,0.4,1.25,0.68,1.89,1c22.61,11.2,48.57-4.88,48.54-30.45
						c0.28-8.36-2.96-15.82-8.72-22.19C1355.79,108.34,1339.55,105.51,1325.91,112.37z"/>
					<g>
						<path class="st2" d="M1386.14,252.26c-3.81-3.04-7.81-5.85-12.07-8.2c-12.14-6.68-25.05-10.7-38.59-8.91
							c-17.91,2.37-32.88,10.88-45.84,23.17c-3.13,2.97-3.07,4.13,0.14,6.92c4.52,3.94,9.16,7.74,14.27,10.91
							c11.46,7.12,23.59,12.15,38.41,11.9c7.44,0.34,15.38-1.78,23.14-4.91c10.48-4.23,19.51-10.65,27.86-18.11
							C1398.39,260.62,1395.22,259.51,1386.14,252.26z M1306,271.42c-3.59-2.32-7.07-4.83-10.22-7.74c-1.93-1.78-1.96-2.65-0.14-4.2
							c6.88-5.84,14.27-10.91,22.67-14.36c0.51-0.21,1.08-0.29,2.13-0.55c-1.19,4.09-3.84,7.2-4.54,11.1
							c-0.71,3.98-0.81,7.92-0.02,11.89c0.79,3.91,3.08,7.18,5.17,11.29C1315.21,276.9,1310.5,274.33,1306,271.42z M1341.5,282.83
							c-11.71,0.05-20.94-9.46-21.14-21.32c-0.17-9.92,7.41-21,21.18-21.29c11.77-0.24,21.01,9.39,21.04,21.33
							C1363.47,271.91,1353.91,282.77,1341.5,282.83z M1386.66,264.22c-7.16,6.12-14.96,11.24-24.14,14.19
							c7.28-11.28,7.01-22.35-0.05-33.32c1.35-0.9,2.19-0.09,3.03,0.29c7.59,3.4,14.46,7.97,20.91,13.18
							C1389.35,260.92,1389.47,261.82,1386.66,264.22z"/>
						<path class="st5" d="M1236.37,222.71l7.07-12.75C1241.01,214.17,1238.68,218.43,1236.37,222.71z"/>
						<path class="st6" d="M1369.64,338.85c9.94-18.34,19.84-36.7,29.77-55.04 M1439.14,209.95h-195.71l99.31,180.29
							 M1393.46,265.03c-8.35,7.46-17.38,13.88-27.86,18.11c-7.76,3.13-15.7,5.25-23.14,4.91c-14.82,0.25-26.95-4.78-38.41-11.9
							c-5.11-3.18-9.75-6.98-14.27-10.91c-3.21-2.79-3.27-3.95-0.14-6.92c12.96-12.29,27.93-20.8,45.84-23.17
							c13.54-1.79,26.45,2.23,38.59,8.91c4.27,2.35,8.27,5.16,12.07,8.2C1395.22,259.51,1398.39,260.62,1393.46,265.03z"/>
						<path class="st6" d="M1362.59,261.56c-0.03-11.94-9.28-21.58-21.04-21.33c-13.77,0.29-21.35,11.37-21.18,21.29
							c0.2,11.85,9.43,21.37,21.14,21.32C1353.91,282.77,1363.47,271.91,1362.59,261.56z"/>
						<path class="st6" d="M1386.41,258.55c-6.45-5.21-13.32-9.77-20.91-13.18c-0.84-0.38-1.69-1.19-3.03-0.29
							c7.06,10.97,7.33,22.04,0.05,33.32c9.18-2.95,16.98-8.06,24.14-14.19C1389.47,261.82,1389.35,260.92,1386.41,258.55z"/>
						<path class="st6" d="M1315.89,255.67c0.69-3.89,3.34-7.01,4.54-11.1c-1.04,0.27-1.61,0.34-2.13,0.55
							c-8.4,3.45-15.79,8.52-22.67,14.36c-1.82,1.54-1.79,2.42,0.14,4.2c3.15,2.9,6.63,5.41,10.22,7.74
							c4.51,2.92,9.22,5.48,15.05,7.43c-2.09-4.11-4.39-7.38-5.17-11.29C1315.08,263.59,1315.18,259.65,1315.89,255.67z"/>
						<path class="st7" d="M1243.64,390.19"/>
						<path class="st7" d="M1342.74,390.24l-99.31-180.29l-7.07,12.75c-2.07,3.82-4.13,7.66-6.21,11.48
							c-3.76,6.9-7.57,13.77-11.33,20.67c-1.52,2.8-1.43,3.17,0.83,5.61c0.78,0.84,1.61,1.62,2.42,2.43
							c6.06,6.06,12.15,12.1,18.17,18.21c2.6,2.64,2.61,3.46,0.65,6.23c-1.91,2.72-1.89,2.69,0.82,4.85
							c0.72,0.57,1.46,1.13,2.21,1.65c7.62,5.29,15.4,10.36,23.52,14.86c1.1,0.61,1.93,1.62,2.3,2.83c1.3,4.25,2.67,8.47,3.99,12.71
							c3.74,12.04,8.55,23.64,14.13,34.93c0.68,1.38,1.7,2.72,1.22,4.42c-1.16,4.16-6.51,6.28-10.19,3.63
							c-0.92-0.66-1.93-1.21-2.96-1.69c-13.17-6.14-26.96-10.54-40.75-14.93c-3.81-1.21-6.36-3.4-8.23-6.9
							c-4.32-8.08-9.9-15.36-15.18-22.82c-0.93-1.31-1.82-2-3.51-0.87c-3.54,2.37-3.63,2.31-6.72-0.69
							c-2.97-2.89-5.83-5.89-8.82-8.76c-2.29-2.19-2.78-2.07-4.41,0.71c-0.22,0.37-0.4,0.76-0.6,1.14
							c-13.14,24.24-29.02,53.53-42.17,77.77"/>
						<path class="st7" d="M1232.34,295.97c-5.5,5.41-10.96,10.86-16.37,16.37c-2.19,2.23-2.14,2.63-0.29,5.07
							c5.02,6.61,9.73,13.46,13.54,20.82c2.51,4.84,6.01,7.63,11.18,9.05c10.75,2.97,21.25,6.71,31.38,11.44
							c0.96,0.45,1.97,1.22,3.21,0.58c-0.15-1.51-1.39-2.16-2.26-3.04c-7.04-7.11-14.14-14.15-21.16-21.27
							c-1.96-1.98-3.89-3.5-6.95-3.63c-2.74-0.11-4.76-1.89-5.42-4.73c-0.84-3.61,1.12-6.84,4.5-7.58c3.87-0.85,7.45,1.24,7.79,5.28
							c0.27,3.21,1.87,5.22,3.92,7.26c7.2,7.15,14.35,14.35,21.54,21.5c0.96,0.95,1.74,2.19,3.23,2.6c0.54-1.48-0.36-2.39-0.82-3.35
							c-3.44-7.08-6.29-14.4-8.64-21.91c-1.41-4.5-3.01-8.94-4.36-13.46c-0.92-3.09-2.71-5.25-5.61-6.62
							c-4.01-1.9-7.81-4.19-11.43-6.75c-3.73-2.64-7.36-5.42-11.09-8.07C1235.43,293.54,1234.8,293.56,1232.34,295.97z"/>
						<path class="st7" d="M1203.19,313.6c2.03,1.97,2.55,1.99,4.6-0.05c9-8.93,17.93-17.92,26.88-26.89c0.6-0.6,1.22-1.21,1.3-2.26
							c-0.08-1.33-1.24-2.07-2.1-2.97c-4.14-4.33-4.16-4.33-8.26-0.23c-7.56,7.55-15.12,15.08-22.65,22.66
							C1197.95,308.9,1197.44,308.02,1203.19,313.6z"/>
						<path class="st7" d="M1194.86,304.38c1.34-0.31,2.09-1.42,2.98-2.31c8.39-8.36,16.76-16.74,25.14-25.12
							c0.5-0.5,0.99-1.03,1.5-1.53c1.12-1.11,1.16-2.2,0.03-3.33c-2.64-2.61-5.25-5.24-7.91-7.83c-1.04-1.01-2.05-0.83-2.86,0.35
							c-0.4,0.59-0.82,1.17-1.16,1.8c-6.05,11.16-12.1,22.33-18.12,33.51c-0.47,0.87-0.91,1.81-1.07,2.77
							C1193.22,303.62,1193.77,304.31,1194.86,304.38z"/>
					</g>
				</g>
				<polygon class="st3" points="1145.32,28.94 1153.86,44.87 1162.64,28.94 				"/>
			</g>
		</g>
		<rect x="60.86" y="444.12" class="st6" width="1378" height="105.43"/>
		<g>
			<path class="st0" d="M179.57,512.46h23.11v7.06h-31.96v-50.91h8.85V512.46z"/>
			<path class="st0" d="M206.94,471.86c0-1.31,0.41-2.39,1.24-3.25c0.83-0.86,2.01-1.29,3.55-1.29c1.54,0,2.73,0.43,3.57,1.29
				c0.84,0.86,1.26,1.95,1.26,3.25c0,1.28-0.42,2.35-1.26,3.2c-0.84,0.85-2.03,1.28-3.57,1.28c-1.54,0-2.72-0.42-3.55-1.28
				C207.36,474.21,206.94,473.15,206.94,471.86z M215.96,519.52h-8.5v-37.83h8.5V519.52z"/>
			<path class="st0" d="M239.04,513.44c2.12,0,3.88-0.62,5.28-1.85c1.4-1.23,2.14-2.76,2.24-4.58h8.01
				c-0.09,2.35-0.83,4.55-2.2,6.59c-1.38,2.04-3.24,3.65-5.59,4.84c-2.35,1.19-4.9,1.78-7.62,1.78c-5.29,0-9.49-1.71-12.59-5.14
				c-3.1-3.43-4.65-8.16-4.65-14.2v-0.87c0-5.76,1.54-10.37,4.62-13.83c3.08-3.46,7.27-5.19,12.59-5.19c4.5,0,8.16,1.31,11,3.93
				c2.83,2.62,4.32,6.07,4.46,10.33h-8.01c-0.09-2.17-0.83-3.95-2.22-5.35c-1.39-1.4-3.15-2.1-5.3-2.1c-2.75,0-4.87,1-6.36,2.99
				s-2.25,5.02-2.27,9.07v1.36c0,4.1,0.74,7.16,2.22,9.18C234.1,512.43,236.24,513.44,239.04,513.44z"/>
			<path class="st0" d="M275.92,520.22c-5.38,0-9.75-1.7-13.09-5.09c-3.35-3.39-5.02-7.91-5.02-13.55v-1.05
				c0-3.78,0.73-7.15,2.19-10.12c1.46-2.97,3.5-5.29,6.14-6.94c2.63-1.66,5.57-2.48,8.81-2.48c5.15,0,9.13,1.64,11.94,4.93
				c2.81,3.29,4.21,7.94,4.21,13.95v3.43h-24.72c0.26,3.12,1.3,5.59,3.13,7.41c1.83,1.82,4.13,2.73,6.91,2.73
				c3.89,0,7.06-1.57,9.51-4.72l4.58,4.37c-1.52,2.26-3.54,4.02-6.07,5.26C281.9,519.6,279.07,520.22,275.92,520.22z M274.9,487.81
				c-2.33,0-4.21,0.82-5.65,2.45s-2.35,3.9-2.74,6.82h16.19v-0.63c-0.19-2.84-0.94-4.99-2.27-6.45
				C279.1,488.54,277.26,487.81,274.9,487.81z"/>
			<path class="st0" d="M303.85,481.69l0.24,4.37c2.8-3.38,6.47-5.07,11.01-5.07c7.88,0,11.89,4.51,12.03,13.53v25h-8.5v-24.51
				c0-2.4-0.52-4.18-1.56-5.33c-1.04-1.15-2.73-1.73-5.09-1.73c-3.43,0-5.98,1.55-7.66,4.65v26.92h-8.5v-37.83H303.85z"/>
			<path class="st0" d="M355.28,509.24c0-1.52-0.62-2.67-1.87-3.46c-1.25-0.79-3.32-1.49-6.21-2.1c-2.89-0.61-5.3-1.38-7.24-2.31
				c-4.24-2.05-6.36-5.02-6.36-8.92c0-3.26,1.38-5.99,4.13-8.18c2.75-2.19,6.25-3.29,10.49-3.29c4.52,0,8.18,1.12,10.96,3.36
				c2.79,2.24,4.18,5.14,4.18,8.71h-8.5c0-1.63-0.61-2.99-1.82-4.07c-1.21-1.08-2.82-1.63-4.83-1.63c-1.87,0-3.39,0.43-4.56,1.29
				c-1.18,0.86-1.77,2.02-1.77,3.46c0,1.31,0.55,2.32,1.64,3.04s3.31,1.45,6.64,2.18c3.33,0.73,5.95,1.61,7.85,2.62
				c1.9,1.01,3.31,2.23,4.23,3.65c0.92,1.42,1.38,3.15,1.38,5.17c0,3.4-1.41,6.16-4.23,8.27s-6.52,3.16-11.08,3.16
				c-3.1,0-5.86-0.56-8.29-1.68c-2.42-1.12-4.31-2.66-5.66-4.62c-1.35-1.96-2.03-4.07-2.03-6.33h8.25c0.12,2,0.87,3.55,2.27,4.63
				c1.4,1.08,3.25,1.63,5.56,1.63c2.24,0,3.94-0.43,5.1-1.28C354.7,511.73,355.28,510.62,355.28,509.24z"/>
			<path class="st0" d="M385.97,520.22c-5.38,0-9.75-1.7-13.09-5.09c-3.35-3.39-5.02-7.91-5.02-13.55v-1.05
				c0-3.78,0.73-7.15,2.19-10.12c1.46-2.97,3.5-5.29,6.14-6.94c2.63-1.66,5.57-2.48,8.81-2.48c5.15,0,9.13,1.64,11.94,4.93
				c2.81,3.29,4.21,7.94,4.21,13.95v3.43h-24.72c0.26,3.12,1.3,5.59,3.13,7.41c1.83,1.82,4.13,2.73,6.91,2.73
				c3.89,0,7.06-1.57,9.51-4.72l4.58,4.37c-1.52,2.26-3.54,4.02-6.07,5.26C391.96,519.6,389.12,520.22,385.97,520.22z
				 M384.96,487.81c-2.33,0-4.21,0.82-5.65,2.45s-2.35,3.9-2.74,6.82h16.19v-0.63c-0.19-2.84-0.94-4.99-2.27-6.45
				C389.15,488.54,387.31,487.81,384.96,487.81z"/>
			<path class="st0" d="M404.43,500.33c0-5.83,1.35-10.51,4.06-14.04c2.7-3.53,6.33-5.3,10.87-5.3c4.01,0,7.25,1.4,9.72,4.2v-19.37
				h8.5v53.71h-7.69l-0.42-3.92c-2.54,3.08-5.93,4.62-10.17,4.62c-4.43,0-8.01-1.78-10.75-5.35
				C405.8,511.3,404.43,506.46,404.43,500.33z M412.93,501.06c0,3.85,0.74,6.85,2.22,9c1.48,2.16,3.58,3.23,6.31,3.23
				c3.47,0,6.01-1.55,7.62-4.65v-16.15c-1.56-3.03-4.08-4.54-7.55-4.54c-2.75,0-4.87,1.09-6.36,3.27
				C413.67,493.4,412.93,496.68,412.93,501.06z"/>
			<path class="st0" d="M494.03,500.99c0,5.87-1.31,10.55-3.93,14.02c-2.62,3.47-6.23,5.21-10.82,5.21c-4.43,0-7.88-1.6-10.35-4.79
				l-0.42,4.09h-7.69v-53.71h8.5v19.51c2.45-2.89,5.75-4.34,9.9-4.34c4.62,0,8.24,1.71,10.87,5.14c2.63,3.43,3.95,8.22,3.95,14.37
				V500.99z M485.54,500.26c0-4.1-0.72-7.18-2.17-9.23c-1.45-2.05-3.54-3.08-6.29-3.08c-3.68,0-6.27,1.61-7.76,4.83v15.59
				c1.52,3.29,4.13,4.93,7.83,4.93c2.66,0,4.71-0.99,6.15-2.97c1.44-1.98,2.19-4.98,2.24-8.99V500.26z"/>
			<path class="st0" d="M512.28,507.35l7.69-25.66h9.06l-15.03,43.57c-2.31,6.36-6.22,9.54-11.75,9.54c-1.24,0-2.6-0.21-4.09-0.63
				v-6.61l1.61,0.1c2.14,0,3.76-0.39,4.84-1.17c1.08-0.78,1.94-2.09,2.57-3.93l1.22-3.25l-13.29-37.63h9.16L512.28,507.35z"/>
			<path class="st0" d="M560.59,468.61l14.69,39.02l14.65-39.02h11.43v50.91h-8.81v-16.78l0.87-22.45l-15.04,39.23h-6.33l-15-39.2
				l0.87,22.41v16.78h-8.81v-50.91H560.59z"/>
			<path class="st0" d="M609.29,471.86c0-1.31,0.41-2.39,1.24-3.25c0.83-0.86,2.01-1.29,3.55-1.29c1.54,0,2.73,0.43,3.57,1.29
				c0.84,0.86,1.26,1.95,1.26,3.25c0,1.28-0.42,2.35-1.26,3.2c-0.84,0.85-2.03,1.28-3.57,1.28c-1.54,0-2.72-0.42-3.55-1.28
				C609.71,474.21,609.29,473.15,609.29,471.86z M618.31,519.52h-8.5v-37.83h8.5V519.52z"/>
			<path class="st0" d="M633.73,481.69l0.24,4.37c2.8-3.38,6.47-5.07,11.01-5.07c7.88,0,11.89,4.51,12.03,13.53v25h-8.5v-24.51
				c0-2.4-0.52-4.18-1.56-5.33c-1.04-1.15-2.73-1.73-5.09-1.73c-3.43,0-5.98,1.55-7.66,4.65v26.92h-8.5v-37.83H633.73z"/>
			<path class="st0" d="M663.97,471.86c0-1.31,0.41-2.39,1.24-3.25c0.83-0.86,2.01-1.29,3.55-1.29c1.54,0,2.73,0.43,3.57,1.29
				c0.84,0.86,1.26,1.95,1.26,3.25c0,1.28-0.42,2.35-1.26,3.2c-0.84,0.85-2.03,1.28-3.57,1.28c-1.54,0-2.72-0.42-3.55-1.28
				C664.38,474.21,663.97,473.15,663.97,471.86z M672.99,519.52h-8.5v-37.83h8.5V519.52z"/>
			<path class="st0" d="M701.72,509.24c0-1.52-0.62-2.67-1.87-3.46c-1.25-0.79-3.32-1.49-6.21-2.1c-2.89-0.61-5.3-1.38-7.24-2.31
				c-4.24-2.05-6.36-5.02-6.36-8.92c0-3.26,1.38-5.99,4.13-8.18c2.75-2.19,6.25-3.29,10.49-3.29c4.52,0,8.18,1.12,10.96,3.36
				c2.79,2.24,4.18,5.14,4.18,8.71h-8.5c0-1.63-0.61-2.99-1.82-4.07c-1.21-1.08-2.82-1.63-4.83-1.63c-1.87,0-3.39,0.43-4.56,1.29
				c-1.18,0.86-1.77,2.02-1.77,3.46c0,1.31,0.55,2.32,1.64,3.04s3.31,1.45,6.64,2.18c3.33,0.73,5.95,1.61,7.85,2.62
				c1.9,1.01,3.31,2.23,4.23,3.65c0.92,1.42,1.38,3.15,1.38,5.17c0,3.4-1.41,6.16-4.23,8.27s-6.52,3.16-11.08,3.16
				c-3.1,0-5.86-0.56-8.29-1.68c-2.42-1.12-4.31-2.66-5.66-4.62c-1.35-1.96-2.03-4.07-2.03-6.33h8.25c0.12,2,0.87,3.55,2.27,4.63
				c1.4,1.08,3.25,1.63,5.56,1.63c2.24,0,3.94-0.43,5.1-1.28C701.14,511.73,701.72,510.62,701.72,509.24z"/>
			<path class="st0" d="M726.4,472.49v9.2h6.68v6.29h-6.68v21.12c0,1.45,0.29,2.49,0.86,3.13c0.57,0.64,1.59,0.96,3.06,0.96
				c0.98,0,1.97-0.12,2.97-0.35v6.57c-1.94,0.54-3.8,0.8-5.59,0.8c-6.53,0-9.79-3.6-9.79-10.8v-21.43h-6.22v-6.29h6.22v-9.2H726.4z"
				/>
			<path class="st0" d="M757.66,489.45c-1.12-0.19-2.27-0.28-3.46-0.28c-3.89,0-6.52,1.49-7.87,4.48v25.87h-8.5v-37.83h8.11
				l0.21,4.23c2.05-3.29,4.9-4.93,8.53-4.93c1.21,0,2.21,0.16,3.01,0.49L757.66,489.45z"/>
			<path class="st0" d="M775.17,507.35l7.69-25.66h9.06l-15.04,43.57c-2.31,6.36-6.22,9.54-11.75,9.54c-1.24,0-2.6-0.21-4.09-0.63
				v-6.61l1.61,0.1c2.14,0,3.76-0.39,4.84-1.17c1.08-0.78,1.94-2.09,2.57-3.93l1.22-3.25L758,481.69h9.16L775.17,507.35z"/>
			<path class="st0" d="M809.6,500.26c0-3.71,0.73-7.05,2.2-10.02s3.53-5.26,6.19-6.85c2.66-1.6,5.71-2.39,9.16-2.39
				c5.11,0,9.25,1.64,12.43,4.93c3.18,3.29,4.9,7.65,5.16,13.08l0.04,1.99c0,3.73-0.72,7.06-2.15,10c-1.43,2.94-3.49,5.21-6.15,6.82
				s-5.75,2.41-9.25,2.41c-5.34,0-9.61-1.78-12.81-5.33c-3.21-3.55-4.81-8.29-4.81-14.21V500.26z M818.1,500.99
				c0,3.89,0.8,6.94,2.41,9.14c1.61,2.2,3.85,3.3,6.71,3.3s5.1-1.12,6.7-3.36c1.6-2.24,2.4-5.51,2.4-9.83
				c0-3.82-0.82-6.85-2.46-9.09c-1.64-2.24-3.88-3.36-6.7-3.36c-2.77,0-4.98,1.1-6.61,3.3S818.1,496.61,818.1,500.99z"/>
			<path class="st0" d="M853.23,519.52v-31.54h-5.77v-6.29h5.77v-3.46c0-4.2,1.17-7.44,3.5-9.72s5.59-3.43,9.79-3.43
				c1.49,0,3.08,0.21,4.76,0.63l-0.21,6.64c-0.93-0.19-2.02-0.28-3.25-0.28c-4.06,0-6.08,2.09-6.08,6.26v3.36h7.69v6.29h-7.69v31.54
				H853.23z"/>
			<path class="st0" d="M920.6,496.79h-20.91v15.67h24.44v7.06h-33.29v-50.91h33.04v7.13h-24.2v14.06h20.91V496.79z"/>
			<path class="st0" d="M926.54,500.33c0-5.83,1.35-10.51,4.06-14.04c2.7-3.53,6.33-5.3,10.87-5.3c4.01,0,7.25,1.4,9.72,4.2v-19.37
				h8.5v53.71h-7.69l-0.42-3.92c-2.54,3.08-5.93,4.62-10.17,4.62c-4.43,0-8.01-1.78-10.75-5.35
				C927.9,511.3,926.54,506.46,926.54,500.33z M935.03,501.06c0,3.85,0.74,6.85,2.22,9c1.48,2.16,3.58,3.23,6.31,3.23
				c3.47,0,6.01-1.55,7.62-4.65v-16.15c-1.56-3.03-4.08-4.54-7.55-4.54c-2.75,0-4.87,1.09-6.36,3.27
				C935.78,493.4,935.03,496.68,935.03,501.06z"/>
			<path class="st0" d="M989.75,515.81c-2.49,2.94-6.04,4.41-10.63,4.41c-4.1,0-7.21-1.2-9.32-3.6c-2.11-2.4-3.16-5.87-3.16-10.42
				v-24.51h8.5v24.41c0,4.8,1.99,7.2,5.98,7.2c4.13,0,6.91-1.48,8.36-4.44v-27.17h8.5v37.83h-8.01L989.75,515.81z"/>
			<path class="st0" d="M1020.44,513.44c2.12,0,3.88-0.62,5.28-1.85c1.4-1.23,2.14-2.76,2.24-4.58h8.01
				c-0.09,2.35-0.83,4.55-2.2,6.59c-1.38,2.04-3.24,3.65-5.59,4.84s-4.89,1.78-7.62,1.78c-5.29,0-9.49-1.71-12.59-5.14
				c-3.1-3.43-4.65-8.16-4.65-14.2v-0.87c0-5.76,1.54-10.37,4.62-13.83c3.08-3.46,7.27-5.19,12.59-5.19c4.5,0,8.16,1.31,11,3.93
				c2.83,2.62,4.32,6.07,4.46,10.33h-8.01c-0.09-2.17-0.83-3.95-2.22-5.35c-1.39-1.4-3.15-2.1-5.3-2.1c-2.75,0-4.87,1-6.36,2.99
				c-1.49,1.99-2.25,5.02-2.27,9.07v1.36c0,4.1,0.74,7.16,2.22,9.18C1015.5,512.43,1017.64,513.44,1020.44,513.44z"/>
			<path class="st0" d="M1063.27,519.52c-0.37-0.72-0.7-1.9-0.98-3.53c-2.7,2.82-6.01,4.23-9.93,4.23c-3.8,0-6.9-1.08-9.3-3.25
				c-2.4-2.17-3.6-4.85-3.6-8.04c0-4.03,1.5-7.13,4.49-9.28c3-2.16,7.28-3.23,12.85-3.23h5.21v-2.48c0-1.96-0.55-3.53-1.64-4.7
				s-2.76-1.77-5-1.77c-1.93,0-3.52,0.48-4.75,1.45c-1.24,0.97-1.85,2.2-1.85,3.69h-8.5c0-2.07,0.69-4.02,2.06-5.82
				c1.38-1.81,3.25-3.22,5.61-4.25c2.37-1.03,5-1.54,7.92-1.54c4.43,0,7.96,1.11,10.59,3.34c2.63,2.23,3.99,5.36,4.06,9.39v17.06
				c0,3.4,0.48,6.12,1.43,8.15v0.59H1063.27z M1053.93,513.4c1.68,0,3.26-0.41,4.74-1.22c1.48-0.82,2.59-1.91,3.34-3.29v-7.13h-4.58
				c-3.15,0-5.51,0.55-7.1,1.64c-1.58,1.1-2.38,2.65-2.38,4.65c0,1.63,0.54,2.93,1.63,3.9
				C1050.66,512.92,1052.11,513.4,1053.93,513.4z"/>
			<path class="st0" d="M1088.33,472.49v9.2h6.68v6.29h-6.68v21.12c0,1.45,0.29,2.49,0.86,3.13c0.57,0.64,1.59,0.96,3.06,0.96
				c0.98,0,1.97-0.12,2.97-0.35v6.57c-1.93,0.54-3.8,0.8-5.59,0.8c-6.53,0-9.79-3.6-9.79-10.8v-21.43h-6.22v-6.29h6.22v-9.2H1088.33
				z"/>
			<path class="st0" d="M1099.8,471.86c0-1.31,0.41-2.39,1.24-3.25c0.83-0.86,2.01-1.29,3.55-1.29c1.54,0,2.73,0.43,3.57,1.29
				c0.84,0.86,1.26,1.95,1.26,3.25c0,1.28-0.42,2.35-1.26,3.2c-0.84,0.85-2.03,1.28-3.57,1.28c-1.54,0-2.72-0.42-3.55-1.28
				C1100.21,474.21,1099.8,473.15,1099.8,471.86z M1108.82,519.52h-8.5v-37.83h8.5V519.52z"/>
			<path class="st0" d="M1114.76,500.26c0-3.71,0.73-7.05,2.2-10.02s3.53-5.26,6.19-6.85c2.66-1.6,5.71-2.39,9.16-2.39
				c5.11,0,9.25,1.64,12.43,4.93c3.18,3.29,4.9,7.65,5.16,13.08l0.04,1.99c0,3.73-0.72,7.06-2.15,10c-1.43,2.94-3.49,5.21-6.15,6.82
				s-5.75,2.41-9.25,2.41c-5.34,0-9.61-1.78-12.81-5.33c-3.21-3.55-4.81-8.29-4.81-14.21V500.26z M1123.25,500.99
				c0,3.89,0.8,6.94,2.41,9.14c1.61,2.2,3.85,3.3,6.71,3.3s5.1-1.12,6.7-3.36c1.6-2.24,2.4-5.51,2.4-9.83
				c0-3.82-0.82-6.85-2.46-9.09c-1.64-2.24-3.88-3.36-6.7-3.36c-2.77,0-4.98,1.1-6.61,3.3S1123.25,496.61,1123.25,500.99z"/>
			<path class="st0" d="M1163.28,481.69l0.25,4.37c2.8-3.38,6.47-5.07,11.01-5.07c7.88,0,11.89,4.51,12.03,13.53v25h-8.5v-24.51
				c0-2.4-0.52-4.18-1.56-5.33c-1.04-1.15-2.73-1.73-5.09-1.73c-3.43,0-5.98,1.55-7.66,4.65v26.92h-8.5v-37.83H1163.28z"/>
			<path class="st0" d="M1247.68,468.61v34.02c0,5.41-1.73,9.69-5.19,12.85c-3.46,3.16-8.07,4.74-13.83,4.74
				c-5.83,0-10.45-1.56-13.88-4.67c-3.43-3.11-5.14-7.43-5.14-12.95v-33.99h8.81v34.06c0,3.4,0.86,6,2.59,7.8
				c1.72,1.79,4.27,2.69,7.62,2.69c6.81,0,10.21-3.59,10.21-10.77v-33.78H1247.68z"/>
			<path class="st0" d="M1283.12,507.67h-19.72l-4.13,11.85h-9.2l19.23-50.91h7.94l19.27,50.91h-9.23L1283.12,507.67z
				 M1265.89,500.53h14.75l-7.38-21.12L1265.89,500.53z"/>
			<path class="st0" d="M1330.32,496.79h-20.91v15.67h24.44v7.06h-33.29v-50.91h33.04v7.13h-24.2v14.06h20.91V496.79z"/>
		</g>
	</g>
</g>
</svg>
